<?xml version="1.0" encoding="UTF-8" standalone="no"?><svg xmlns="http://www.w3.org/2000/svg" xmlns:xlink="http://www.w3.org/1999/xlink" clip-rule="evenodd" stroke-miterlimit="10" viewBox="0 0 1024 768"><desc>SVG generated by Keynote</desc><defs></defs><g transform="matrix(1.00, 0.00, -0.00, -1.00, 0.0, 768.0)"><path d="M 0.0 768.0 L 1024.0 768.0 L 1024.0 0.0 L 0.0 0.0 Z M 0.0 768.0 " fill="#FEFFFF"></path><image xlink:href="32D26DCA97AECA226CC0B06CA3956DFB.png" width="376.00" height="256.00" transform="matrix(1.00, 0.00, -0.00, -1.00, 1062.7, 686.7)"></image><image xlink:href="F0DBE5CE27E7EEB7FAEDAC4977DC7B43.png" width="376.00" height="256.00" transform="matrix(1.00, 0.00, -0.00, -1.00, 1062.7, 420.0)"></image><image xlink:href="9469CCB0E35488F1EE46344F68B810BE.png" width="373.00" height="256.00" transform="matrix(0.87, 0.00, -0.00, -0.87, 79.2, 270.5)"></image><text xml:space="preserve" font-family="Helvetica-Light,Helvetica" font-size="60.0" fill="#000000" transform="matrix(1.00, 0.00, -0.00, -1.00, 73.5, 659.0)">P</text><text xml:space="preserve" font-family="Helvetica-Light,Helvetica" font-size="60.0" fill="#000000" transform="matrix(1.00, 0.00, -0.00, -1.00, 110.2, 659.0)">r</text><text xml:space="preserve" font-family="Helvetica-Light,Helvetica" font-size="60.0" fill="#000000" transform="matrix(1.00, 0.00, -0.00, -1.00, 129.1, 659.0)">o</text><text xml:space="preserve" font-family="Helvetica-Light,Helvetica" font-size="60.0" fill="#000000" transform="matrix(1.00, 0.00, -0.00, -1.00, 162.4, 659.0)">ﬁ</text><text xml:space="preserve" font-family="Helvetica-Light,Helvetica" font-size="60.0" fill="#000000" transform="matrix(1.00, 0.00, -0.00, -1.00, 192.4, 659.0)">l</text><text xml:space="preserve" font-family="Helvetica-Light,Helvetica" font-size="60.0" fill="#000000" transform="matrix(1.00, 0.00, -0.00, -1.00, 205.8, 659.0)">e</text><text xml:space="preserve" font-family="Helvetica-Light,Helvetica" font-size="60.0" fill="#000000" transform="matrix(1.00, 0.00, -0.00, -1.00, 239.1, 659.0)"> </text><text xml:space="preserve" font-family="Helvetica-Light,Helvetica" font-size="60.0" fill="#000000" transform="matrix(1.00, 0.00, -0.00, -1.00, 255.8, 659.0)">e</text><text xml:space="preserve" font-family="Helvetica-Light,Helvetica" font-size="60.0" fill="#000000" transform="matrix(1.00, 0.00, -0.00, -1.00, 289.2, 659.0)">v</text><text xml:space="preserve" font-family="Helvetica-Light,Helvetica" font-size="60.0" fill="#000000" transform="matrix(1.00, 0.00, -0.00, -1.00, 319.2, 659.0)">o</text><text xml:space="preserve" font-family="Helvetica-Light,Helvetica" font-size="60.0" fill="#000000" transform="matrix(1.00, 0.00, -0.00, -1.00, 352.5, 659.0)">l</text><text xml:space="preserve" font-family="Helvetica-Light,Helvetica" font-size="60.0" fill="#000000" transform="matrix(1.00, 0.00, -0.00, -1.00, 365.8, 659.0)">u</text><text xml:space="preserve" font-family="Helvetica-Light,Helvetica" font-size="60.0" fill="#000000" transform="matrix(1.00, 0.00, -0.00, -1.00, 399.2, 659.0)">t</text><text xml:space="preserve" font-family="Helvetica-Light,Helvetica" font-size="60.0" fill="#000000" transform="matrix(1.00, 0.00, -0.00, -1.00, 415.9, 659.0)">i</text><text xml:space="preserve" font-family="Helvetica-Light,Helvetica" font-size="60.0" fill="#000000" transform="matrix(1.00, 0.00, -0.00, -1.00, 429.2, 659.0)">o</text><text xml:space="preserve" font-family="Helvetica-Light,Helvetica" font-size="60.0" fill="#000000" transform="matrix(1.00, 0.00, -0.00, -1.00, 462.6, 659.0)">n</text><text xml:space="preserve" font-family="Helvetica-Light,Helvetica" font-size="21.0" fill="#000000" transform="matrix(1.00, 0.00, -0.00, -1.00, 70.5, 565.6)">•</text><text xml:space="preserve" font-family="Helvetica-Light,Helvetica" font-size="28.0" fill="#000000" transform="matrix(1.00, 0.00, -0.00, -1.00, 97.5, 562.7)">G</text><text xml:space="preserve" font-family="Helvetica-Light,Helvetica" font-size="28.0" fill="#000000" transform="matrix(1.00, 0.00, -0.00, -1.00, 119.3, 562.7)">l</text><text xml:space="preserve" font-family="Helvetica-Light,Helvetica" font-size="28.0" fill="#000000" transform="matrix(1.00, 0.00, -0.00, -1.00, 125.5, 562.7)">o</text><text xml:space="preserve" font-family="Helvetica-Light,Helvetica" font-size="28.0" fill="#000000" transform="matrix(1.00, 0.00, -0.00, -1.00, 141.1, 562.7)">b</text><text xml:space="preserve" font-family="Helvetica-Light,Helvetica" font-size="28.0" fill="#000000" transform="matrix(1.00, 0.00, -0.00, -1.00, 158.2, 562.7)">a</text><text xml:space="preserve" font-family="Helvetica-Light,Helvetica" font-size="28.0" fill="#000000" transform="matrix(1.00, 0.00, -0.00, -1.00, 173.8, 562.7)">l</text><text xml:space="preserve" font-family="Helvetica-Light,Helvetica" font-size="28.0" fill="#000000" transform="matrix(1.00, 0.00, -0.00, -1.00, 180.0, 562.7)"> </text><text xml:space="preserve" font-family="Helvetica-Light,Helvetica" font-size="28.0" fill="#000000" transform="matrix(1.00, 0.00, -0.00, -1.00, 187.8, 562.7)">a</text><text xml:space="preserve" font-family="Helvetica-Light,Helvetica" font-size="28.0" fill="#000000" transform="matrix(1.00, 0.00, -0.00, -1.00, 203.3, 562.7)">c</text><text xml:space="preserve" font-family="Helvetica-Light,Helvetica" font-size="28.0" fill="#000000" transform="matrix(1.00, 0.00, -0.00, -1.00, 218.9, 562.7)">t</text><text xml:space="preserve" font-family="Helvetica-Light,Helvetica" font-size="28.0" fill="#000000" transform="matrix(1.00, 0.00, -0.00, -1.00, 226.7, 562.7)">i</text><text xml:space="preserve" font-family="Helvetica-Light,Helvetica" font-size="28.0" fill="#000000" transform="matrix(1.00, 0.00, -0.00, -1.00, 232.9, 562.7)">v</text><text xml:space="preserve" font-family="Helvetica-Light,Helvetica" font-size="28.0" fill="#000000" transform="matrix(1.00, 0.00, -0.00, -1.00, 246.9, 562.7)">i</text><text xml:space="preserve" font-family="Helvetica-Light,Helvetica" font-size="28.0" fill="#000000" transform="matrix(1.00, 0.00, -0.00, -1.00, 253.1, 562.7)">t</text><text xml:space="preserve" font-family="Helvetica-Light,Helvetica" font-size="28.0" fill="#000000" transform="matrix(1.00, 0.00, -0.00, -1.00, 260.9, 562.7)">y</text><text xml:space="preserve" font-family="Helvetica-Light,Helvetica" font-size="28.0" fill="#000000" transform="matrix(1.00, 0.00, -0.00, -1.00, 274.9, 562.7)"> </text><text xml:space="preserve" font-family="Helvetica-Light,Helvetica" font-size="28.0" fill="#000000" transform="matrix(1.00, 0.00, -0.00, -1.00, 282.7, 562.7)">a</text><text xml:space="preserve" font-family="Helvetica-Light,Helvetica" font-size="28.0" fill="#000000" transform="matrix(1.00, 0.00, -0.00, -1.00, 298.3, 562.7)">s</text><text xml:space="preserve" font-family="Helvetica-Light,Helvetica" font-size="28.0" fill="#000000" transform="matrix(1.00, 0.00, -0.00, -1.00, 312.3, 562.7)"> </text><text xml:space="preserve" font-family="Helvetica-Light,Helvetica" font-size="28.0" fill="#000000" transform="matrix(1.00, 0.00, -0.00, -1.00, 320.0, 562.7)">a</text><text xml:space="preserve" font-family="Helvetica-Light,Helvetica" font-size="28.0" fill="#000000" transform="matrix(1.00, 0.00, -0.00, -1.00, 335.6, 562.7)"> </text><text xml:space="preserve" font-family="Helvetica-Light,Helvetica" font-size="28.0" fill="#000000" transform="matrix(1.00, 0.00, -0.00, -1.00, 343.4, 562.7)">w</text><text xml:space="preserve" font-family="Helvetica-Light,Helvetica" font-size="28.0" fill="#000000" transform="matrix(1.00, 0.00, -0.00, -1.00, 363.6, 562.7)">e</text><text xml:space="preserve" font-family="Helvetica-Light,Helvetica" font-size="28.0" fill="#000000" transform="matrix(1.00, 0.00, -0.00, -1.00, 379.2, 562.7)">i</text><text xml:space="preserve" font-family="Helvetica-Light,Helvetica" font-size="28.0" fill="#000000" transform="matrix(1.00, 0.00, -0.00, -1.00, 385.4, 562.7)">g</text><text xml:space="preserve" font-family="Helvetica-Light,Helvetica" font-size="28.0" fill="#000000" transform="matrix(1.00, 0.00, -0.00, -1.00, 402.5, 562.7)">h</text><text xml:space="preserve" font-family="Helvetica-Light,Helvetica" font-size="28.0" fill="#000000" transform="matrix(1.00, 0.00, -0.00, -1.00, 418.1, 562.7)">t</text><text xml:space="preserve" font-family="Helvetica-Light,Helvetica" font-size="28.0" fill="#000000" transform="matrix(1.00, 0.00, -0.00, -1.00, 425.8, 562.7)">e</text><text xml:space="preserve" font-family="Helvetica-Light,Helvetica" font-size="28.0" fill="#000000" transform="matrix(1.00, 0.00, -0.00, -1.00, 441.4, 562.7)">d</text><text xml:space="preserve" font-family="Helvetica-Light,Helvetica" font-size="28.0" fill="#000000" transform="matrix(1.00, 0.00, -0.00, -1.00, 458.5, 562.7)"> </text><text xml:space="preserve" font-family="Helvetica-Light,Helvetica" font-size="28.0" fill="#000000" transform="matrix(1.00, 0.00, -0.00, -1.00, 97.5, 528.7)">p</text><text xml:space="preserve" font-family="Helvetica-Light,Helvetica" font-size="28.0" fill="#000000" transform="matrix(1.00, 0.00, -0.00, -1.00, 114.6, 528.7)">r</text><text xml:space="preserve" font-family="Helvetica-Light,Helvetica" font-size="28.0" fill="#000000" transform="matrix(1.00, 0.00, -0.00, -1.00, 124.0, 528.7)">i</text><text xml:space="preserve" font-family="Helvetica-Light,Helvetica" font-size="28.0" fill="#000000" transform="matrix(1.00, 0.00, -0.00, -1.00, 130.2, 528.7)">o</text><text xml:space="preserve" font-family="Helvetica-Light,Helvetica" font-size="28.0" fill="#000000" transform="matrix(1.00, 0.00, -0.00, -1.00, 145.7, 528.7)">r</text><text xml:space="preserve" font-family="Helvetica-Light,Helvetica" font-size="28.0" fill="#000000" transform="matrix(1.00, 0.00, -0.00, -1.00, 155.1, 528.7)"> </text><text xml:space="preserve" font-family="Helvetica-Light,Helvetica" font-size="28.0" fill="#000000" transform="matrix(1.00, 0.00, -0.00, -1.00, 162.8, 528.7)">f</text><text xml:space="preserve" font-family="Helvetica-Light,Helvetica" font-size="28.0" fill="#000000" transform="matrix(1.00, 0.00, -0.00, -1.00, 170.6, 528.7)">o</text><text xml:space="preserve" font-family="Helvetica-Light,Helvetica" font-size="28.0" fill="#000000" transform="matrix(1.00, 0.00, -0.00, -1.00, 186.2, 528.7)">r</text><text xml:space="preserve" font-family="Helvetica-Light,Helvetica" font-size="28.0" fill="#000000" transform="matrix(1.00, 0.00, -0.00, -1.00, 195.5, 528.7)"> </text><text xml:space="preserve" font-family="Helvetica-Light,Helvetica" font-size="28.0" fill="#000000" transform="matrix(1.00, 0.00, -0.00, -1.00, 203.3, 528.7)">t</text><text xml:space="preserve" font-family="Helvetica-Light,Helvetica" font-size="28.0" fill="#000000" transform="matrix(1.00, 0.00, -0.00, -1.00, 211.1, 528.7)">h</text><text xml:space="preserve" font-family="Helvetica-Light,Helvetica" font-size="28.0" fill="#000000" transform="matrix(1.00, 0.00, -0.00, -1.00, 226.7, 528.7)">e</text><text xml:space="preserve" font-family="Helvetica-Light,Helvetica" font-size="28.0" fill="#000000" transform="matrix(1.00, 0.00, -0.00, -1.00, 242.2, 528.7)"> </text><text xml:space="preserve" font-family="Helvetica-Light,Helvetica" font-size="28.0" fill="#000000" transform="matrix(1.00, 0.00, -0.00, -1.00, 250.0, 528.7)">i</text><text xml:space="preserve" font-family="Helvetica-Light,Helvetica" font-size="28.0" fill="#000000" transform="matrix(1.00, 0.00, -0.00, -1.00, 256.2, 528.7)">n</text><text xml:space="preserve" font-family="Helvetica-Light,Helvetica" font-size="28.0" fill="#000000" transform="matrix(1.00, 0.00, -0.00, -1.00, 271.8, 528.7)">d</text><text xml:space="preserve" font-family="Helvetica-Light,Helvetica" font-size="28.0" fill="#000000" transform="matrix(1.00, 0.00, -0.00, -1.00, 288.9, 528.7)">i</text><text xml:space="preserve" font-family="Helvetica-Light,Helvetica" font-size="28.0" fill="#000000" transform="matrix(1.00, 0.00, -0.00, -1.00, 295.1, 528.7)">v</text><text xml:space="preserve" font-family="Helvetica-Light,Helvetica" font-size="28.0" fill="#000000" transform="matrix(1.00, 0.00, -0.00, -1.00, 309.1, 528.7)">i</text><text xml:space="preserve" font-family="Helvetica-Light,Helvetica" font-size="28.0" fill="#000000" transform="matrix(1.00, 0.00, -0.00, -1.00, 315.3, 528.7)">d</text><text xml:space="preserve" font-family="Helvetica-Light,Helvetica" font-size="28.0" fill="#000000" transform="matrix(1.00, 0.00, -0.00, -1.00, 332.4, 528.7)">u</text><text xml:space="preserve" font-family="Helvetica-Light,Helvetica" font-size="28.0" fill="#000000" transform="matrix(1.00, 0.00, -0.00, -1.00, 348.0, 528.7)">a</text><text xml:space="preserve" font-family="Helvetica-Light,Helvetica" font-size="28.0" fill="#000000" transform="matrix(1.00, 0.00, -0.00, -1.00, 363.6, 528.7)">l</text><text xml:space="preserve" font-family="Helvetica-Light,Helvetica" font-size="28.0" fill="#000000" transform="matrix(1.00, 0.00, -0.00, -1.00, 369.8, 528.7)"> </text><text xml:space="preserve" font-family="Helvetica-Light,Helvetica" font-size="28.0" fill="#000000" transform="matrix(1.00, 0.00, -0.00, -1.00, 377.6, 528.7)">p</text><text xml:space="preserve" font-family="Helvetica-Light,Helvetica" font-size="28.0" fill="#000000" transform="matrix(1.00, 0.00, -0.00, -1.00, 394.7, 528.7)">r</text><text xml:space="preserve" font-family="Helvetica-Light,Helvetica" font-size="28.0" fill="#000000" transform="matrix(1.00, 0.00, -0.00, -1.00, 403.5, 528.7)">o</text><text xml:space="preserve" font-family="Helvetica-Light,Helvetica" font-size="28.0" fill="#000000" transform="matrix(1.00, 0.00, -0.00, -1.00, 419.1, 528.7)">ﬁ</text><text xml:space="preserve" font-family="Helvetica-Light,Helvetica" font-size="28.0" fill="#000000" transform="matrix(1.00, 0.00, -0.00, -1.00, 433.1, 528.7)">l</text><text xml:space="preserve" font-family="Helvetica-Light,Helvetica" font-size="28.0" fill="#000000" transform="matrix(1.00, 0.00, -0.00, -1.00, 439.3, 528.7)">e</text><text xml:space="preserve" font-family="Helvetica-Light,Helvetica" font-size="28.0" fill="#000000" transform="matrix(1.00, 0.00, -0.00, -1.00, 454.9, 528.7)">s</text><text xml:space="preserve" font-family="Helvetica-Light,Helvetica" font-size="28.0" fill="#000000" transform="matrix(1.00, 0.00, -0.00, -1.00, 468.9, 528.7)"> </text><text xml:space="preserve" font-family="Helvetica-Light,Helvetica" font-size="28.0" fill="#000000" transform="matrix(1.00, 0.00, -0.00, -1.00, 476.6, 528.7)"> </text><text xml:space="preserve" font-family="Helvetica-Light,Helvetica" font-size="21.0" fill="#000000" transform="matrix(1.00, 0.00, -0.00, -1.00, 70.5, 465.6)">•</text><text xml:space="preserve" font-family="Helvetica-Light,Helvetica" font-size="28.0" fill="#000000" transform="matrix(1.00, 0.00, -0.00, -1.00, 97.5, 462.7)">C</text><text xml:space="preserve" font-family="Helvetica-Light,Helvetica" font-size="28.0" fill="#000000" transform="matrix(1.00, 0.00, -0.00, -1.00, 117.7, 462.7)">u</text><text xml:space="preserve" font-family="Helvetica-Light,Helvetica" font-size="28.0" fill="#000000" transform="matrix(1.00, 0.00, -0.00, -1.00, 133.3, 462.7)">m</text><text xml:space="preserve" font-family="Helvetica-Light,Helvetica" font-size="28.0" fill="#000000" transform="matrix(1.00, 0.00, -0.00, -1.00, 156.6, 462.7)">u</text><text xml:space="preserve" font-family="Helvetica-Light,Helvetica" font-size="28.0" fill="#000000" transform="matrix(1.00, 0.00, -0.00, -1.00, 172.2, 462.7)">l</text><text xml:space="preserve" font-family="Helvetica-Light,Helvetica" font-size="28.0" fill="#000000" transform="matrix(1.00, 0.00, -0.00, -1.00, 178.4, 462.7)">a</text><text xml:space="preserve" font-family="Helvetica-Light,Helvetica" font-size="28.0" fill="#000000" transform="matrix(1.00, 0.00, -0.00, -1.00, 194.0, 462.7)">t</text><text xml:space="preserve" font-family="Helvetica-Light,Helvetica" font-size="28.0" fill="#000000" transform="matrix(1.00, 0.00, -0.00, -1.00, 201.8, 462.7)">i</text><text xml:space="preserve" font-family="Helvetica-Light,Helvetica" font-size="28.0" fill="#000000" transform="matrix(1.00, 0.00, -0.00, -1.00, 208.0, 462.7)">v</text><text xml:space="preserve" font-family="Helvetica-Light,Helvetica" font-size="28.0" fill="#000000" transform="matrix(1.00, 0.00, -0.00, -1.00, 222.0, 462.7)">e</text><text xml:space="preserve" font-family="Helvetica-Light,Helvetica" font-size="28.0" fill="#000000" transform="matrix(1.00, 0.00, -0.00, -1.00, 237.5, 462.7)"> </text><text xml:space="preserve" font-family="Helvetica-Light,Helvetica" font-size="28.0" fill="#000000" transform="matrix(1.00, 0.00, -0.00, -1.00, 245.3, 462.7)">i</text><text xml:space="preserve" font-family="Helvetica-Light,Helvetica" font-size="28.0" fill="#000000" transform="matrix(1.00, 0.00, -0.00, -1.00, 251.5, 462.7)">n</text><text xml:space="preserve" font-family="Helvetica-Light,Helvetica" font-size="28.0" fill="#000000" transform="matrix(1.00, 0.00, -0.00, -1.00, 267.1, 462.7)">d</text><text xml:space="preserve" font-family="Helvetica-Light,Helvetica" font-size="28.0" fill="#000000" transform="matrix(1.00, 0.00, -0.00, -1.00, 284.2, 462.7)">i</text><text xml:space="preserve" font-family="Helvetica-Light,Helvetica" font-size="28.0" fill="#000000" transform="matrix(1.00, 0.00, -0.00, -1.00, 290.4, 462.7)">v</text><text xml:space="preserve" font-family="Helvetica-Light,Helvetica" font-size="28.0" fill="#000000" transform="matrix(1.00, 0.00, -0.00, -1.00, 304.4, 462.7)">i</text><text xml:space="preserve" font-family="Helvetica-Light,Helvetica" font-size="28.0" fill="#000000" transform="matrix(1.00, 0.00, -0.00, -1.00, 310.7, 462.7)">d</text><text xml:space="preserve" font-family="Helvetica-Light,Helvetica" font-size="28.0" fill="#000000" transform="matrix(1.00, 0.00, -0.00, -1.00, 327.8, 462.7)">u</text><text xml:space="preserve" font-family="Helvetica-Light,Helvetica" font-size="28.0" fill="#000000" transform="matrix(1.00, 0.00, -0.00, -1.00, 343.3, 462.7)">a</text><text xml:space="preserve" font-family="Helvetica-Light,Helvetica" font-size="28.0" fill="#000000" transform="matrix(1.00, 0.00, -0.00, -1.00, 358.9, 462.7)">l</text><text xml:space="preserve" font-family="Helvetica-Light,Helvetica" font-size="28.0" fill="#000000" transform="matrix(1.00, 0.00, -0.00, -1.00, 365.1, 462.7)"> </text><text xml:space="preserve" font-family="Helvetica-Light,Helvetica" font-size="28.0" fill="#000000" transform="matrix(1.00, 0.00, -0.00, -1.00, 372.9, 462.7)">a</text><text xml:space="preserve" font-family="Helvetica-Light,Helvetica" font-size="28.0" fill="#000000" transform="matrix(1.00, 0.00, -0.00, -1.00, 388.5, 462.7)">c</text><text xml:space="preserve" font-family="Helvetica-Light,Helvetica" font-size="28.0" fill="#000000" transform="matrix(1.00, 0.00, -0.00, -1.00, 404.0, 462.7)">t</text><text xml:space="preserve" font-family="Helvetica-Light,Helvetica" font-size="28.0" fill="#000000" transform="matrix(1.00, 0.00, -0.00, -1.00, 411.8, 462.7)">i</text><text xml:space="preserve" font-family="Helvetica-Light,Helvetica" font-size="28.0" fill="#000000" transform="matrix(1.00, 0.00, -0.00, -1.00, 418.0, 462.7)">v</text><text xml:space="preserve" font-family="Helvetica-Light,Helvetica" font-size="28.0" fill="#000000" transform="matrix(1.00, 0.00, -0.00, -1.00, 432.0, 462.7)">i</text><text xml:space="preserve" font-family="Helvetica-Light,Helvetica" font-size="28.0" fill="#000000" transform="matrix(1.00, 0.00, -0.00, -1.00, 438.3, 462.7)">t</text><text xml:space="preserve" font-family="Helvetica-Light,Helvetica" font-size="28.0" fill="#000000" transform="matrix(1.00, 0.00, -0.00, -1.00, 446.0, 462.7)">y</text><text xml:space="preserve" font-family="Helvetica-Light,Helvetica" font-size="28.0" fill="#000000" transform="matrix(1.00, 0.00, -0.00, -1.00, 460.0, 462.7)"> </text><text xml:space="preserve" font-family="Helvetica-Light,Helvetica" font-size="28.0" fill="#000000" transform="matrix(1.00, 0.00, -0.00, -1.00, 97.5, 428.7)">u</text><text xml:space="preserve" font-family="Helvetica-Light,Helvetica" font-size="28.0" fill="#000000" transform="matrix(1.00, 0.00, -0.00, -1.00, 113.1, 428.7)">p</text><text xml:space="preserve" font-family="Helvetica-Light,Helvetica" font-size="28.0" fill="#000000" transform="matrix(1.00, 0.00, -0.00, -1.00, 130.2, 428.7)">d</text><text xml:space="preserve" font-family="Helvetica-Light,Helvetica" font-size="28.0" fill="#000000" transform="matrix(1.00, 0.00, -0.00, -1.00, 147.3, 428.7)">a</text><text xml:space="preserve" font-family="Helvetica-Light,Helvetica" font-size="28.0" fill="#000000" transform="matrix(1.00, 0.00, -0.00, -1.00, 162.9, 428.7)">t</text><text xml:space="preserve" font-family="Helvetica-Light,Helvetica" font-size="28.0" fill="#000000" transform="matrix(1.00, 0.00, -0.00, -1.00, 170.7, 428.7)">e</text><text xml:space="preserve" font-family="Helvetica-Light,Helvetica" font-size="28.0" fill="#000000" transform="matrix(1.00, 0.00, -0.00, -1.00, 186.2, 428.7)">s</text><text xml:space="preserve" font-family="Helvetica-Light,Helvetica" font-size="28.0" fill="#000000" transform="matrix(1.00, 0.00, -0.00, -1.00, 200.2, 428.7)"> </text><text xml:space="preserve" font-family="Helvetica-Light,Helvetica" font-size="28.0" fill="#000000" transform="matrix(1.00, 0.00, -0.00, -1.00, 208.0, 428.7)">t</text><text xml:space="preserve" font-family="Helvetica-Light,Helvetica" font-size="28.0" fill="#000000" transform="matrix(1.00, 0.00, -0.00, -1.00, 215.8, 428.7)">h</text><text xml:space="preserve" font-family="Helvetica-Light,Helvetica" font-size="28.0" fill="#000000" transform="matrix(1.00, 0.00, -0.00, -1.00, 231.4, 428.7)">e</text><text xml:space="preserve" font-family="Helvetica-Light,Helvetica" font-size="28.0" fill="#000000" transform="matrix(1.00, 0.00, -0.00, -1.00, 246.9, 428.7)"> </text><text xml:space="preserve" font-family="Helvetica-Light,Helvetica" font-size="28.0" fill="#000000" transform="matrix(1.00, 0.00, -0.00, -1.00, 254.7, 428.7)">p</text><text xml:space="preserve" font-family="Helvetica-Light,Helvetica" font-size="28.0" fill="#000000" transform="matrix(1.00, 0.00, -0.00, -1.00, 271.8, 428.7)">r</text><text xml:space="preserve" font-family="Helvetica-Light,Helvetica" font-size="28.0" fill="#000000" transform="matrix(1.00, 0.00, -0.00, -1.00, 280.6, 428.7)">o</text><text xml:space="preserve" font-family="Helvetica-Light,Helvetica" font-size="28.0" fill="#000000" transform="matrix(1.00, 0.00, -0.00, -1.00, 296.2, 428.7)">ﬁ</text><text xml:space="preserve" font-family="Helvetica-Light,Helvetica" font-size="28.0" fill="#000000" transform="matrix(1.00, 0.00, -0.00, -1.00, 310.2, 428.7)">l</text><text xml:space="preserve" font-family="Helvetica-Light,Helvetica" font-size="28.0" fill="#000000" transform="matrix(1.00, 0.00, -0.00, -1.00, 316.4, 428.7)">e</text><g><clipPath id="clip0x600002cb8d20"><path d="M 668.9 478.7 L 993.0 478.7 L 993.0 699.4 L 668.9 699.4 Z M 668.9 478.7 "></path></clipPath><g clip-path="url(#clip0x600002cb8d20)"><image xlink:href="../../532F8EC5-2CE0-4ABA-90B2-05CCBA6C0C40/assets/DDE1843D32267A5B49E7691349AA9EC2.png" width="376.00" height="256.00" transform="matrix(0.86, 0.00, -0.00, -0.86, 668.9, 699.4)"></image></g></g><g><clipPath id="clip0x6080020b13a0"><path d="M 685.5 478.5 L 994.7 478.5 L 994.7 495.5 L 685.5 495.5 Z M 685.5 478.5 "></path></clipPath><g clip-path="url(#clip0x6080020b13a0)"><path d="M 687.0 495.0 L 994.0 495.0 L 994.0 479.0 L 687.0 479.0 Z M 686.5 494.5 " fill="#FEFFFE"></path></g></g><g><clipPath id="clip0x608002cbf1a0"><path d="M 673.1 491.9 L 673.1 699.9 L 690.2 699.9 L 690.2 491.9 Z M 673.1 491.9 "></path></clipPath><g clip-path="url(#clip0x608002cbf1a0)"><path d="M 674.0 493.0 L 674.0 699.0 L 689.0 699.0 L 689.0 493.0 Z M 674.1 492.9 " fill="#FEFFFE"></path></g></g><g><clipPath id="clip0x6080022a8f40"><path d="M 716.8 472.5 L 739.1 472.5 L 739.1 499.5 L 716.8 499.5 Z M 716.8 472.5 "></path></clipPath><g clip-path="url(#clip0x6080022a8f40)"><text xml:space="preserve" font-family="Helvetica,Helvetica" font-size="16.0" fill="#000000" transform="matrix(1.00, 0.00, -0.00, -1.00, 721.3, 480.2)">M</text></g></g><g><clipPath id="clip0x608002cb67a0"><path d="M 759.7 472.5 L 778.4 472.5 L 778.4 499.5 L 759.7 499.5 Z M 759.7 472.5 "></path></clipPath><g clip-path="url(#clip0x608002cb67a0)"><text xml:space="preserve" font-family="Helvetica,Helvetica" font-size="16.0" fill="#000000" transform="matrix(1.00, 0.00, -0.00, -1.00, 764.2, 480.2)">T</text></g></g><g><clipPath id="clip0x6080020b2ae0"><path d="M 798.1 472.5 L 822.2 472.5 L 822.2 499.5 L 798.1 499.5 Z M 798.1 472.5 "></path></clipPath><g clip-path="url(#clip0x6080020b2ae0)"><text xml:space="preserve" font-family="Helvetica,Helvetica" font-size="16.0" fill="#000000" transform="matrix(1.00, 0.00, -0.00, -1.00, 802.6, 480.2)">W</text></g></g><g><clipPath id="clip0x608000aa3ba0"><path d="M 837.4 472.5 L 865.0 472.5 L 865.0 499.5 L 837.4 499.5 Z M 837.4 472.5 "></path></clipPath><g clip-path="url(#clip0x608000aa3ba0)"><text xml:space="preserve" font-family="Helvetica,Helvetica" font-size="16.0" fill="#000000" transform="matrix(1.00, 0.00, -0.00, -1.00, 841.9, 480.2)">T</text><text xml:space="preserve" font-family="Helvetica,Helvetica" font-size="16.0" fill="#000000" transform="matrix(1.00, 0.00, -0.00, -1.00, 851.6, 480.2)">h</text></g></g><g><clipPath id="clip0x6080016bf9e0"><path d="M 882.9 472.5 L 901.7 472.5 L 901.7 499.5 L 882.9 499.5 Z M 882.9 472.5 "></path></clipPath><g clip-path="url(#clip0x6080016bf9e0)"><text xml:space="preserve" font-family="Helvetica,Helvetica" font-size="16.0" fill="#000000" transform="matrix(1.00, 0.00, -0.00, -1.00, 887.4, 480.2)">F</text></g></g><g><clipPath id="clip0x608002cb5060"><path d="M 919.1 472.5 L 947.7 472.5 L 947.7 499.5 L 919.1 499.5 Z M 919.1 472.5 "></path></clipPath><g clip-path="url(#clip0x608002cb5060)"><text xml:space="preserve" font-family="Helvetica,Helvetica" font-size="16.0" fill="#000000" transform="matrix(1.00, 0.00, -0.00, -1.00, 923.6, 480.2)">S</text><text xml:space="preserve" font-family="Helvetica,Helvetica" font-size="16.0" fill="#000000" transform="matrix(1.00, 0.00, -0.00, -1.00, 934.3, 480.2)">a</text></g></g><g><clipPath id="clip0x608002ca57c0"><path d="M 960.2 472.5 L 988.7 472.5 L 988.7 499.5 L 960.2 499.5 Z M 960.2 472.5 "></path></clipPath><g clip-path="url(#clip0x608002ca57c0)"><text xml:space="preserve" font-family="Helvetica,Helvetica" font-size="16.0" fill="#000000" transform="matrix(1.00, 0.00, -0.00, -1.00, 964.7, 480.2)">S</text><text xml:space="preserve" font-family="Helvetica,Helvetica" font-size="16.0" fill="#000000" transform="matrix(1.00, 0.00, -0.00, -1.00, 975.3, 480.2)">u</text></g></g><g><clipPath id="clip0x608002cbde20"><path d="M 667.6 257.7 L 994.3 257.7 L 994.3 480.1 L 667.6 480.1 Z M 667.6 257.7 "></path></clipPath><g clip-path="url(#clip0x608002cbde20)"><image xlink:href="4C84C61FA2E72DC31D7709F461A2B7FC.png" width="376.00" height="256.00" transform="matrix(0.87, 0.00, -0.00, -0.87, 667.6, 480.1)"></image></g></g><g><clipPath id="clip0x608002ca33c0"><path d="M 685.6 257.2 L 994.7 257.2 L 994.7 274.3 L 685.6 274.3 Z M 685.6 257.2 "></path></clipPath><g clip-path="url(#clip0x608002ca33c0)"><path d="M 687.0 273.0 L 994.0 273.0 L 994.0 258.0 L 687.0 258.0 Z M 686.6 273.3 " fill="#FEFFFE"></path></g></g><g><clipPath id="clip0x608002eaf420"><path d="M 673.2 270.7 L 673.2 478.6 L 690.2 478.6 L 690.2 270.7 Z M 673.2 270.7 "></path></clipPath><g clip-path="url(#clip0x608002eaf420)"><path d="M 674.0 272.0 L 674.0 478.0 L 689.0 478.0 L 689.0 272.0 Z M 674.2 271.7 " fill="#FEFFFE"></path></g></g><image xlink:href="C892B455E142BB3F3D77815157124769.png" width="376.00" height="256.00" transform="matrix(0.87, 0.00, -0.00, -0.87, 667.6, 267.0)"></image><path d="M 685.0 62.0 L 992.0 62.0 L 992.0 47.0 L 685.0 47.0 Z M 684.6 62.1 " fill="#FEFFFE"></path><path d="M 672.0 51.0 L 672.0 266.0 L 687.0 266.0 L 687.0 51.0 Z M 672.2 50.6 " fill="#FEFFFE"></path><g><clipPath id="clip0x608002eaf780"><path d="M 716.8 252.5 L 739.1 252.5 L 739.1 279.5 L 716.8 279.5 Z M 716.8 252.5 "></path></clipPath><g clip-path="url(#clip0x608002eaf780)"><text xml:space="preserve" font-family="Helvetica,Helvetica" font-size="16.0" fill="#000000" transform="matrix(1.00, 0.00, -0.00, -1.00, 721.3, 260.2)">M</text></g></g><g><clipPath id="clip0x608002eafa80"><path d="M 759.7 252.5 L 778.4 252.5 L 778.4 279.5 L 759.7 279.5 Z M 759.7 252.5 "></path></clipPath><g clip-path="url(#clip0x608002eafa80)"><text xml:space="preserve" font-family="Helvetica,Helvetica" font-size="16.0" fill="#000000" transform="matrix(1.00, 0.00, -0.00, -1.00, 764.2, 260.2)">T</text></g></g><g><clipPath id="clip0x608002eafa20"><path d="M 798.1 252.5 L 822.2 252.5 L 822.2 279.5 L 798.1 279.5 Z M 798.1 252.5 "></path></clipPath><g clip-path="url(#clip0x608002eafa20)"><text xml:space="preserve" font-family="Helvetica,Helvetica" font-size="16.0" fill="#000000" transform="matrix(1.00, 0.00, -0.00, -1.00, 802.6, 260.2)">W</text></g></g><g><clipPath id="clip0x608002eafea0"><path d="M 837.4 252.5 L 865.0 252.5 L 865.0 279.5 L 837.4 279.5 Z M 837.4 252.5 "></path></clipPath><g clip-path="url(#clip0x608002eafea0)"><text xml:space="preserve" font-family="Helvetica,Helvetica" font-size="16.0" fill="#000000" transform="matrix(1.00, 0.00, -0.00, -1.00, 841.9, 260.2)">T</text><text xml:space="preserve" font-family="Helvetica,Helvetica" font-size="16.0" fill="#000000" transform="matrix(1.00, 0.00, -0.00, -1.00, 851.6, 260.2)">h</text></g></g><g><clipPath id="clip0x608002eb0140"><path d="M 882.9 252.5 L 901.7 252.5 L 901.7 279.5 L 882.9 279.5 Z M 882.9 252.5 "></path></clipPath><g clip-path="url(#clip0x608002eb0140)"><text xml:space="preserve" font-family="Helvetica,Helvetica" font-size="16.0" fill="#000000" transform="matrix(1.00, 0.00, -0.00, -1.00, 887.4, 260.2)">F</text></g></g><g><clipPath id="clip0x608002eb03e0"><path d="M 919.1 252.5 L 947.7 252.5 L 947.7 279.5 L 919.1 279.5 Z M 919.1 252.5 "></path></clipPath><g clip-path="url(#clip0x608002eb03e0)"><text xml:space="preserve" font-family="Helvetica,Helvetica" font-size="16.0" fill="#000000" transform="matrix(1.00, 0.00, -0.00, -1.00, 923.6, 260.2)">S</text><text xml:space="preserve" font-family="Helvetica,Helvetica" font-size="16.0" fill="#000000" transform="matrix(1.00, 0.00, -0.00, -1.00, 934.3, 260.2)">a</text></g></g><g><clipPath id="clip0x608002eb06e0"><path d="M 960.2 252.5 L 988.7 252.5 L 988.7 279.5 L 960.2 279.5 Z M 960.2 252.5 "></path></clipPath><g clip-path="url(#clip0x608002eb06e0)"><text xml:space="preserve" font-family="Helvetica,Helvetica" font-size="16.0" fill="#000000" transform="matrix(1.00, 0.00, -0.00, -1.00, 964.7, 260.2)">S</text><text xml:space="preserve" font-family="Helvetica,Helvetica" font-size="16.0" fill="#000000" transform="matrix(1.00, 0.00, -0.00, -1.00, 975.3, 260.2)">u</text></g></g><g><clipPath id="clip0x608002eb0980"><path d="M 716.8 37.5 L 739.1 37.5 L 739.1 64.5 L 716.8 64.5 Z M 716.8 37.5 "></path></clipPath><g clip-path="url(#clip0x608002eb0980)"><text xml:space="preserve" font-family="Helvetica,Helvetica" font-size="16.0" fill="#000000" transform="matrix(1.00, 0.00, -0.00, -1.00, 721.3, 45.2)">M</text></g></g><g><clipPath id="clip0x608002eb0bc0"><path d="M 759.7 37.5 L 778.4 37.5 L 778.4 64.5 L 759.7 64.5 Z M 759.7 37.5 "></path></clipPath><g clip-path="url(#clip0x608002eb0bc0)"><text xml:space="preserve" font-family="Helvetica,Helvetica" font-size="16.0" fill="#000000" transform="matrix(1.00, 0.00, -0.00, -1.00, 764.2, 45.2)">T</text></g></g><g><clipPath id="clip0x608002eb0ce0"><path d="M 798.1 37.5 L 822.2 37.5 L 822.2 64.5 L 798.1 64.5 Z M 798.1 37.5 "></path></clipPath><g clip-path="url(#clip0x608002eb0ce0)"><text xml:space="preserve" font-family="Helvetica,Helvetica" font-size="16.0" fill="#000000" transform="matrix(1.00, 0.00, -0.00, -1.00, 802.6, 45.2)">W</text></g></g><g><clipPath id="clip0x608002eb1040"><path d="M 837.4 37.5 L 865.0 37.5 L 865.0 64.5 L 837.4 64.5 Z M 837.4 37.5 "></path></clipPath><g clip-path="url(#clip0x608002eb1040)"><text xml:space="preserve" font-family="Helvetica,Helvetica" font-size="16.0" fill="#000000" transform="matrix(1.00, 0.00, -0.00, -1.00, 841.9, 45.2)">T</text><text xml:space="preserve" font-family="Helvetica,Helvetica" font-size="16.0" fill="#000000" transform="matrix(1.00, 0.00, -0.00, -1.00, 851.6, 45.2)">h</text></g></g><g><clipPath id="clip0x608002eb12e0"><path d="M 882.9 37.5 L 901.7 37.5 L 901.7 64.5 L 882.9 64.5 Z M 882.9 37.5 "></path></clipPath><g clip-path="url(#clip0x608002eb12e0)"><text xml:space="preserve" font-family="Helvetica,Helvetica" font-size="16.0" fill="#000000" transform="matrix(1.00, 0.00, -0.00, -1.00, 887.4, 45.2)">F</text></g></g><g><clipPath id="clip0x608002eb1580"><path d="M 919.1 37.5 L 947.7 37.5 L 947.7 64.5 L 919.1 64.5 Z M 919.1 37.5 "></path></clipPath><g clip-path="url(#clip0x608002eb1580)"><text xml:space="preserve" font-family="Helvetica,Helvetica" font-size="16.0" fill="#000000" transform="matrix(1.00, 0.00, -0.00, -1.00, 923.6, 45.2)">S</text><text xml:space="preserve" font-family="Helvetica,Helvetica" font-size="16.0" fill="#000000" transform="matrix(1.00, 0.00, -0.00, -1.00, 934.3, 45.2)">a</text></g></g><g><clipPath id="clip0x608002eb18e0"><path d="M 960.2 37.5 L 988.7 37.5 L 988.7 64.5 L 960.2 64.5 Z M 960.2 37.5 "></path></clipPath><g clip-path="url(#clip0x608002eb18e0)"><text xml:space="preserve" font-family="Helvetica,Helvetica" font-size="16.0" fill="#000000" transform="matrix(1.00, 0.00, -0.00, -1.00, 964.7, 45.2)">S</text><text xml:space="preserve" font-family="Helvetica,Helvetica" font-size="16.0" fill="#000000" transform="matrix(1.00, 0.00, -0.00, -1.00, 975.3, 45.2)">u</text></g></g><path d="M 94.0 64.0 L 401.0 64.0 L 401.0 49.0 L 94.0 49.0 Z M 93.9 63.9 " fill="#FEFFFE"></path><g><clipPath id="clip0x608002eb1ca0"><path d="M 126.0 38.3 L 148.4 38.3 L 148.4 65.3 L 126.0 65.3 Z M 126.0 38.3 "></path></clipPath><g clip-path="url(#clip0x608002eb1ca0)"><text xml:space="preserve" font-family="Helvetica,Helvetica" font-size="16.0" fill="#000000" transform="matrix(1.00, 0.00, -0.00, -1.00, 130.5, 46.0)">M</text></g></g><g><clipPath id="clip0x608002eb1e80"><path d="M 168.9 38.3 L 187.7 38.3 L 187.7 65.3 L 168.9 65.3 Z M 168.9 38.3 "></path></clipPath><g clip-path="url(#clip0x608002eb1e80)"><text xml:space="preserve" font-family="Helvetica,Helvetica" font-size="16.0" fill="#000000" transform="matrix(1.00, 0.00, -0.00, -1.00, 173.4, 46.0)">T</text></g></g><g><clipPath id="clip0x6080030a2100"><path d="M 207.3 38.3 L 231.4 38.3 L 231.4 65.3 L 207.3 65.3 Z M 207.3 38.3 "></path></clipPath><g clip-path="url(#clip0x6080030a2100)"><text xml:space="preserve" font-family="Helvetica,Helvetica" font-size="16.0" fill="#000000" transform="matrix(1.00, 0.00, -0.00, -1.00, 211.8, 46.0)">W</text></g></g><g><clipPath id="clip0x6080030a2a00"><path d="M 246.6 38.3 L 274.3 38.3 L 274.3 65.3 L 246.6 65.3 Z M 246.6 38.3 "></path></clipPath><g clip-path="url(#clip0x6080030a2a00)"><text xml:space="preserve" font-family="Helvetica,Helvetica" font-size="16.0" fill="#000000" transform="matrix(1.00, 0.00, -0.00, -1.00, 251.1, 46.0)">T</text><text xml:space="preserve" font-family="Helvetica,Helvetica" font-size="16.0" fill="#000000" transform="matrix(1.00, 0.00, -0.00, -1.00, 260.9, 46.0)">h</text></g></g><g><clipPath id="clip0x6080030a2760"><path d="M 292.2 38.3 L 310.9 38.3 L 310.9 65.3 L 292.2 65.3 Z M 292.2 38.3 "></path></clipPath><g clip-path="url(#clip0x6080030a2760)"><text xml:space="preserve" font-family="Helvetica,Helvetica" font-size="16.0" fill="#000000" transform="matrix(1.00, 0.00, -0.00, -1.00, 296.7, 46.0)">F</text></g></g><g><clipPath id="clip0x6080030a2520"><path d="M 328.3 38.3 L 356.9 38.3 L 356.9 65.3 L 328.3 65.3 Z M 328.3 38.3 "></path></clipPath><g clip-path="url(#clip0x6080030a2520)"><text xml:space="preserve" font-family="Helvetica,Helvetica" font-size="16.0" fill="#000000" transform="matrix(1.00, 0.00, -0.00, -1.00, 332.8, 46.0)">S</text><text xml:space="preserve" font-family="Helvetica,Helvetica" font-size="16.0" fill="#000000" transform="matrix(1.00, 0.00, -0.00, -1.00, 343.5, 46.0)">a</text></g></g><g><clipPath id="clip0x6080030a2400"><path d="M 369.4 38.3 L 398.0 38.3 L 398.0 65.3 L 369.4 65.3 Z M 369.4 38.3 "></path></clipPath><g clip-path="url(#clip0x6080030a2400)"><text xml:space="preserve" font-family="Helvetica,Helvetica" font-size="16.0" fill="#000000" transform="matrix(1.00, 0.00, -0.00, -1.00, 373.9, 46.0)">S</text><text xml:space="preserve" font-family="Helvetica,Helvetica" font-size="16.0" fill="#000000" transform="matrix(1.00, 0.00, -0.00, -1.00, 384.6, 46.0)">u</text></g></g><text xml:space="preserve" font-family="Helvetica-Light,Helvetica" font-size="22.0" fill="#000000" transform="matrix(1.00, 0.00, -0.00, -1.00, 128.7, 274.1)">c</text><text xml:space="preserve" font-family="Helvetica-Light,Helvetica" font-size="22.0" fill="#000000" transform="matrix(1.00, 0.00, -0.00, -1.00, 140.9, 274.1)">u</text><text xml:space="preserve" font-family="Helvetica-Light,Helvetica" font-size="22.0" fill="#000000" transform="matrix(1.00, 0.00, -0.00, -1.00, 153.2, 274.1)">s</text><text xml:space="preserve" font-family="Helvetica-Light,Helvetica" font-size="22.0" fill="#000000" transform="matrix(1.00, 0.00, -0.00, -1.00, 164.2, 274.1)">t</text><text xml:space="preserve" font-family="Helvetica-Light,Helvetica" font-size="22.0" fill="#000000" transform="matrix(1.00, 0.00, -0.00, -1.00, 170.3, 274.1)">o</text><text xml:space="preserve" font-family="Helvetica-Light,Helvetica" font-size="22.0" fill="#000000" transform="matrix(1.00, 0.00, -0.00, -1.00, 182.5, 274.1)">m</text><text xml:space="preserve" font-family="Helvetica-Light,Helvetica" font-size="22.0" fill="#000000" transform="matrix(1.00, 0.00, -0.00, -1.00, 200.9, 274.1)">e</text><text xml:space="preserve" font-family="Helvetica-Light,Helvetica" font-size="22.0" fill="#000000" transform="matrix(1.00, 0.00, -0.00, -1.00, 213.1, 274.1)">r</text><text xml:space="preserve" font-family="Helvetica-Light,Helvetica" font-size="22.0" fill="#000000" transform="matrix(1.00, 0.00, -0.00, -1.00, 220.4, 274.1)"> </text><text xml:space="preserve" font-family="Helvetica-Light,Helvetica" font-size="22.0" fill="#000000" transform="matrix(1.00, 0.00, -0.00, -1.00, 226.5, 274.1)">a</text><text xml:space="preserve" font-family="Helvetica-Light,Helvetica" font-size="22.0" fill="#000000" transform="matrix(1.00, 0.00, -0.00, -1.00, 238.8, 274.1)">c</text><text xml:space="preserve" font-family="Helvetica-Light,Helvetica" font-size="22.0" fill="#000000" transform="matrix(1.00, 0.00, -0.00, -1.00, 251.0, 274.1)">t</text><text xml:space="preserve" font-family="Helvetica-Light,Helvetica" font-size="22.0" fill="#000000" transform="matrix(1.00, 0.00, -0.00, -1.00, 257.1, 274.1)">i</text><text xml:space="preserve" font-family="Helvetica-Light,Helvetica" font-size="22.0" fill="#000000" transform="matrix(1.00, 0.00, -0.00, -1.00, 262.0, 274.1)">v</text><text xml:space="preserve" font-family="Helvetica-Light,Helvetica" font-size="22.0" fill="#000000" transform="matrix(1.00, 0.00, -0.00, -1.00, 273.0, 274.1)">i</text><text xml:space="preserve" font-family="Helvetica-Light,Helvetica" font-size="22.0" fill="#000000" transform="matrix(1.00, 0.00, -0.00, -1.00, 277.9, 274.1)">t</text><text xml:space="preserve" font-family="Helvetica-Light,Helvetica" font-size="22.0" fill="#000000" transform="matrix(1.00, 0.00, -0.00, -1.00, 284.0, 274.1)">y</text><text xml:space="preserve" font-family="Helvetica-Light,Helvetica" font-size="22.0" fill="#000000" transform="matrix(1.00, 0.00, -0.00, -1.00, 295.0, 274.1)"> </text><text xml:space="preserve" font-family="Helvetica-Light,Helvetica" font-size="22.0" fill="#000000" transform="matrix(1.00, 0.00, -0.00, -1.00, 301.1, 274.1)">t</text><text xml:space="preserve" font-family="Helvetica-Light,Helvetica" font-size="22.0" fill="#000000" transform="matrix(1.00, 0.00, -0.00, -1.00, 307.2, 274.1)">o</text><text xml:space="preserve" font-family="Helvetica-Light,Helvetica" font-size="22.0" fill="#000000" transform="matrix(1.00, 0.00, -0.00, -1.00, 319.5, 274.1)">t</text><text xml:space="preserve" font-family="Helvetica-Light,Helvetica" font-size="22.0" fill="#000000" transform="matrix(1.00, 0.00, -0.00, -1.00, 325.6, 274.1)">a</text><text xml:space="preserve" font-family="Helvetica-Light,Helvetica" font-size="22.0" fill="#000000" transform="matrix(1.00, 0.00, -0.00, -1.00, 337.8, 274.1)">l</text><text xml:space="preserve" font-family="Helvetica-Light,Helvetica" font-size="22.0" fill="#000000" transform="matrix(1.00, 0.00, -0.00, -1.00, 342.7, 274.1)">s</text><text xml:space="preserve" font-family="Helvetica-Light,Helvetica" font-size="22.0" fill="#000000" transform="matrix(1.00, 0.00, -0.00, -1.00, 601.7, 596.1)">w</text><text xml:space="preserve" font-family="Helvetica-Light,Helvetica" font-size="22.0" fill="#000000" transform="matrix(1.00, 0.00, -0.00, -1.00, 617.6, 596.1)">e</text><text xml:space="preserve" font-family="Helvetica-Light,Helvetica" font-size="22.0" fill="#000000" transform="matrix(1.00, 0.00, -0.00, -1.00, 629.8, 596.1)">e</text><text xml:space="preserve" font-family="Helvetica-Light,Helvetica" font-size="22.0" fill="#000000" transform="matrix(1.00, 0.00, -0.00, -1.00, 642.1, 596.1)">k</text><text xml:space="preserve" font-family="Helvetica-Light,Helvetica" font-size="22.0" fill="#000000" transform="matrix(1.00, 0.00, -0.00, -1.00, 653.1, 596.1)"> </text><text xml:space="preserve" font-family="Helvetica-Light,Helvetica" font-size="22.0" fill="#000000" transform="matrix(1.00, 0.00, -0.00, -1.00, 659.2, 596.1)">0</text><text xml:space="preserve" font-family="Helvetica-Light,Helvetica" font-size="22.0" fill="#000000" transform="matrix(1.00, 0.00, -0.00, -1.00, 601.7, 376.1)">w</text><text xml:space="preserve" font-family="Helvetica-Light,Helvetica" font-size="22.0" fill="#000000" transform="matrix(1.00, 0.00, -0.00, -1.00, 617.6, 376.1)">e</text><text xml:space="preserve" font-family="Helvetica-Light,Helvetica" font-size="22.0" fill="#000000" transform="matrix(1.00, 0.00, -0.00, -1.00, 629.8, 376.1)">e</text><text xml:space="preserve" font-family="Helvetica-Light,Helvetica" font-size="22.0" fill="#000000" transform="matrix(1.00, 0.00, -0.00, -1.00, 642.1, 376.1)">k</text><text xml:space="preserve" font-family="Helvetica-Light,Helvetica" font-size="22.0" fill="#000000" transform="matrix(1.00, 0.00, -0.00, -1.00, 653.1, 376.1)"> </text><text xml:space="preserve" font-family="Helvetica-Light,Helvetica" font-size="22.0" fill="#000000" transform="matrix(1.00, 0.00, -0.00, -1.00, 659.2, 376.1)">4</text><text xml:space="preserve" font-family="Helvetica-Light,Helvetica" font-size="22.0" fill="#000000" transform="matrix(1.00, 0.00, -0.00, -1.00, 601.7, 156.0)">w</text><text xml:space="preserve" font-family="Helvetica-Light,Helvetica" font-size="22.0" fill="#000000" transform="matrix(1.00, 0.00, -0.00, -1.00, 617.6, 156.0)">e</text><text xml:space="preserve" font-family="Helvetica-Light,Helvetica" font-size="22.0" fill="#000000" transform="matrix(1.00, 0.00, -0.00, -1.00, 629.8, 156.0)">e</text><text xml:space="preserve" font-family="Helvetica-Light,Helvetica" font-size="22.0" fill="#000000" transform="matrix(1.00, 0.00, -0.00, -1.00, 642.1, 156.0)">k</text><text xml:space="preserve" font-family="Helvetica-Light,Helvetica" font-size="22.0" fill="#000000" transform="matrix(1.00, 0.00, -0.00, -1.00, 653.1, 156.0)"> </text><text xml:space="preserve" font-family="Helvetica-Light,Helvetica" font-size="22.0" fill="#000000" transform="matrix(1.00, 0.00, -0.00, -1.00, 659.2, 156.0)">8</text></g></svg>