<?xml version="1.0" encoding="UTF-8" standalone="no"?><svg xmlns="http://www.w3.org/2000/svg" xmlns:xlink="http://www.w3.org/1999/xlink" clip-rule="evenodd" stroke-miterlimit="10" viewBox="0 0 1024 768"><desc>SVG generated by Keynote</desc><defs></defs><g transform="matrix(1.00, 0.00, -0.00, -1.00, 0.0, 768.0)"><path d="M 0.0 768.0 L 1024.0 768.0 L 1024.0 0.0 L 0.0 0.0 Z M 0.0 768.0 " fill="#FEFFFF"></path><text xml:space="preserve" font-family="Helvetica-Light,Helvetica" font-size="47.4" fill="#000000" transform="matrix(1.00, 0.00, -0.00, -1.00, 374.4, 12.5)">G</text><text xml:space="preserve" font-family="Helvetica-Light,Helvetica" font-size="47.4" fill="#000000" transform="matrix(1.00, 0.00, -0.00, -1.00, 411.2, 12.5)">e</text><text xml:space="preserve" font-family="Helvetica-Light,Helvetica" font-size="47.4" fill="#000000" transform="matrix(1.00, 0.00, -0.00, -1.00, 437.6, 12.5)">o</text><text xml:space="preserve" font-family="Helvetica-Light,Helvetica" font-size="47.4" fill="#000000" transform="matrix(1.00, 0.00, -0.00, -1.00, 463.9, 12.5)">f</text><text xml:space="preserve" font-family="Helvetica-Light,Helvetica" font-size="47.4" fill="#000000" transform="matrix(1.00, 0.00, -0.00, -1.00, 476.3, 12.5)">f</text><text xml:space="preserve" font-family="Helvetica-Light,Helvetica" font-size="47.4" fill="#000000" transform="matrix(1.00, 0.00, -0.00, -1.00, 489.4, 12.5)"> </text><text xml:space="preserve" font-family="Helvetica-Light,Helvetica" font-size="47.4" fill="#000000" transform="matrix(1.00, 0.00, -0.00, -1.00, 502.6, 12.5)">S</text><text xml:space="preserve" font-family="Helvetica-Light,Helvetica" font-size="47.4" fill="#000000" transform="matrix(1.00, 0.00, -0.00, -1.00, 531.6, 12.5)">v</text><text xml:space="preserve" font-family="Helvetica-Light,Helvetica" font-size="47.4" fill="#000000" transform="matrix(1.00, 0.00, -0.00, -1.00, 555.3, 12.5)">a</text><text xml:space="preserve" font-family="Helvetica-Light,Helvetica" font-size="47.4" fill="#000000" transform="matrix(1.00, 0.00, -0.00, -1.00, 581.6, 12.5)">c</text><text xml:space="preserve" font-family="Helvetica-Light,Helvetica" font-size="47.4" fill="#000000" transform="matrix(1.00, 0.00, -0.00, -1.00, 608.0, 12.5)">h</text><text xml:space="preserve" font-family="Helvetica-Light,Helvetica" font-size="47.4" fill="#000000" transform="matrix(1.00, 0.00, -0.00, -1.00, 634.4, 12.5)">a</text><text xml:space="preserve" font-family="Helvetica-Light,Helvetica" font-size="47.4" fill="#000000" transform="matrix(1.00, 0.00, -0.00, -1.00, 660.7, 12.5)"> </text><image xlink:href="../../376417C3-8D51-45B7-82CD-4CC7CDC39140/assets/F8F56236B23DFF593BD661F67FB2F033.jpeg" width="640.00" height="480.00" transform="matrix(0.00, -0.60, -0.60, 0.00, -73.9, 538.1)"></image><image xlink:href="../../376417C3-8D51-45B7-82CD-4CC7CDC39140/assets/83CD198E79DD9F80D76AC84895D29D6F.png" width="621.00" height="466.00" transform="matrix(1.07, 0.00, -0.00, -1.07, 534.8, 843.1)"></image><image xlink:href="../../376417C3-8D51-45B7-82CD-4CC7CDC39140/assets/CCD6B0CF929C10ED2900322199EF8221.png" width="1173.00" height="532.00" transform="matrix(0.54, 0.00, -0.00, -0.54, -2.0, 770.4)"></image><image xlink:href="../../376417C3-8D51-45B7-82CD-4CC7CDC39140/assets/C192CBB4D7202FE5F09D95545BA85AC8.png" width="618.00" height="462.00" transform="matrix(0.70, 0.00, -0.00, -0.70, 597.5, 485.7)"></image><image xlink:href="../../376417C3-8D51-45B7-82CD-4CC7CDC39140/assets/B3484187B24B8D44A8DA7EFDE36EE84C.png" width="1396.00" height="736.00" transform="matrix(0.46, 0.00, -0.00, -0.46, -20.7, 486.4)"></image><image xlink:href="../../376417C3-8D51-45B7-82CD-4CC7CDC39140/assets/CDC6D9B6C46D81E0CB3780A7818E6F7B.jpeg" width="168.00" height="173.00" transform="matrix(0.56, 0.00, -0.00, -0.56, 403.5, 153.3)"></image><image xlink:href="../../376417C3-8D51-45B7-82CD-4CC7CDC39140/assets/F490EE2FAE0EBDC22C5E25D75053A8B4.jpeg" width="135.00" height="123.00" transform="matrix(0.79, 0.00, -0.00, -0.79, 209.3, 153.3)"></image><image xlink:href="../../376417C3-8D51-45B7-82CD-4CC7CDC39140/assets/7F02E7B8962E06EE3023D1F5C69CEB3F.jpeg" width="213.00" height="237.00" transform="matrix(0.41, 0.00, -0.00, -0.41, 30.2, 153.3)"></image><image xlink:href="../../376417C3-8D51-45B7-82CD-4CC7CDC39140/assets/A0CF38F75FC894D0E6D9D55D3BD68AD5.jpeg" width="326.00" height="154.00" transform="matrix(0.45, 0.00, -0.00, -0.45, 585.4, 139.4)"></image><image xlink:href="../../376417C3-8D51-45B7-82CD-4CC7CDC39140/assets/61737DFA23FFF93030591C737FAA27F5.png" width="4096.00" height="1707.00" transform="matrix(0.04, 0.00, -0.00, -0.04, 819.1, 139.4)"></image></g></svg>