<?xml version="1.0" encoding="UTF-8" standalone="no"?><svg xmlns="http://www.w3.org/2000/svg" xmlns:xlink="http://www.w3.org/1999/xlink" clip-rule="evenodd" stroke-miterlimit="10" viewBox="0 0 1024 768"><desc>SVG generated by Keynote</desc><defs></defs><g transform="matrix(1.00, 0.00, -0.00, -1.00, 0.0, 768.0)"><path d="M 0.0 768.0 L 1024.0 768.0 L 1024.0 0.0 L 0.0 0.0 Z M 0.0 768.0 " fill="#FEFFFF"></path><g><clipPath id="clip0x6000030be600"><path d="M 127.0 718.0 L 897.0 718.0 L 897.0 252.0 L 127.0 252.0 Z M 126.5 718.0 "></path></clipPath><g clip-path="url(#clip0x6000030be600)"><image xlink:href="../../0099E750-43F4-4A1E-80C1-2076B752852F/assets/3E15064CFEB62AE85D6CFEE66A1324EC.jpeg" width="1920.00" height="1281.00" transform="matrix(0.40, 0.00, -0.00, -0.40, 126.5, 718.0)"></image></g></g><text xml:space="preserve" font-family="Helvetica-Light,Helvetica" font-size="47.2" fill="#000000" transform="matrix(1.00, 0.00, -0.00, -1.00, 52.0, 136.9)">I</text><text xml:space="preserve" font-family="Helvetica-Light,Helvetica" font-size="47.2" fill="#000000" transform="matrix(1.00, 0.00, -0.00, -1.00, 65.1, 136.9)">m</text><text xml:space="preserve" font-family="Helvetica-Light,Helvetica" font-size="47.2" fill="#000000" transform="matrix(1.00, 0.00, -0.00, -1.00, 104.4, 136.9)">p</text><text xml:space="preserve" font-family="Helvetica-Light,Helvetica" font-size="47.2" fill="#000000" transform="matrix(1.00, 0.00, -0.00, -1.00, 133.3, 136.9)">r</text><text xml:space="preserve" font-family="Helvetica-Light,Helvetica" font-size="47.2" fill="#000000" transform="matrix(1.00, 0.00, -0.00, -1.00, 148.1, 136.9)">o</text><text xml:space="preserve" font-family="Helvetica-Light,Helvetica" font-size="47.2" fill="#000000" transform="matrix(1.00, 0.00, -0.00, -1.00, 174.4, 136.9)">v</text><text xml:space="preserve" font-family="Helvetica-Light,Helvetica" font-size="47.2" fill="#000000" transform="matrix(1.00, 0.00, -0.00, -1.00, 198.0, 136.9)">i</text><text xml:space="preserve" font-family="Helvetica-Light,Helvetica" font-size="47.2" fill="#000000" transform="matrix(1.00, 0.00, -0.00, -1.00, 208.5, 136.9)">n</text><text xml:space="preserve" font-family="Helvetica-Light,Helvetica" font-size="47.2" fill="#000000" transform="matrix(1.00, 0.00, -0.00, -1.00, 234.7, 136.9)">g</text><text xml:space="preserve" font-family="Helvetica-Light,Helvetica" font-size="47.2" fill="#000000" transform="matrix(1.00, 0.00, -0.00, -1.00, 263.6, 136.9)"> </text><text xml:space="preserve" font-family="Helvetica-Light,Helvetica" font-size="47.2" fill="#000000" transform="matrix(1.00, 0.00, -0.00, -1.00, 276.7, 136.9)">p</text><text xml:space="preserve" font-family="Helvetica-Light,Helvetica" font-size="47.2" fill="#000000" transform="matrix(1.00, 0.00, -0.00, -1.00, 305.5, 136.9)">o</text><text xml:space="preserve" font-family="Helvetica-Light,Helvetica" font-size="47.2" fill="#000000" transform="matrix(1.00, 0.00, -0.00, -1.00, 331.8, 136.9)">w</text><text xml:space="preserve" font-family="Helvetica-Light,Helvetica" font-size="47.2" fill="#000000" transform="matrix(1.00, 0.00, -0.00, -1.00, 365.8, 136.9)">e</text><text xml:space="preserve" font-family="Helvetica-Light,Helvetica" font-size="47.2" fill="#000000" transform="matrix(1.00, 0.00, -0.00, -1.00, 392.1, 136.9)">r</text><text xml:space="preserve" font-family="Helvetica-Light,Helvetica" font-size="47.2" fill="#000000" transform="matrix(1.00, 0.00, -0.00, -1.00, 407.8, 136.9)"> </text><text xml:space="preserve" font-family="Helvetica-Light,Helvetica" font-size="47.2" fill="#000000" transform="matrix(1.00, 0.00, -0.00, -1.00, 420.9, 136.9)">m</text><text xml:space="preserve" font-family="Helvetica-Light,Helvetica" font-size="47.2" fill="#000000" transform="matrix(1.00, 0.00, -0.00, -1.00, 460.2, 136.9)">a</text><text xml:space="preserve" font-family="Helvetica-Light,Helvetica" font-size="47.2" fill="#000000" transform="matrix(1.00, 0.00, -0.00, -1.00, 486.5, 136.9)">n</text><text xml:space="preserve" font-family="Helvetica-Light,Helvetica" font-size="47.2" fill="#000000" transform="matrix(1.00, 0.00, -0.00, -1.00, 512.7, 136.9)">a</text><text xml:space="preserve" font-family="Helvetica-Light,Helvetica" font-size="47.2" fill="#000000" transform="matrix(1.00, 0.00, -0.00, -1.00, 539.0, 136.9)">g</text><text xml:space="preserve" font-family="Helvetica-Light,Helvetica" font-size="47.2" fill="#000000" transform="matrix(1.00, 0.00, -0.00, -1.00, 567.8, 136.9)">e</text><text xml:space="preserve" font-family="Helvetica-Light,Helvetica" font-size="47.2" fill="#000000" transform="matrix(1.00, 0.00, -0.00, -1.00, 594.0, 136.9)">m</text><text xml:space="preserve" font-family="Helvetica-Light,Helvetica" font-size="47.2" fill="#000000" transform="matrix(1.00, 0.00, -0.00, -1.00, 633.4, 136.9)">e</text><text xml:space="preserve" font-family="Helvetica-Light,Helvetica" font-size="47.2" fill="#000000" transform="matrix(1.00, 0.00, -0.00, -1.00, 659.6, 136.9)">n</text><text xml:space="preserve" font-family="Helvetica-Light,Helvetica" font-size="47.2" fill="#000000" transform="matrix(1.00, 0.00, -0.00, -1.00, 685.8, 136.9)">t</text><text xml:space="preserve" font-family="Helvetica-Light,Helvetica" font-size="47.2" fill="#000000" transform="matrix(1.00, 0.00, -0.00, -1.00, 699.0, 136.9)"> </text><text xml:space="preserve" font-family="Helvetica-Light,Helvetica" font-size="47.2" fill="#000000" transform="matrix(1.00, 0.00, -0.00, -1.00, 712.1, 136.9)">o</text><text xml:space="preserve" font-family="Helvetica-Light,Helvetica" font-size="47.2" fill="#000000" transform="matrix(1.00, 0.00, -0.00, -1.00, 738.3, 136.9)">f</text><text xml:space="preserve" font-family="Helvetica-Light,Helvetica" font-size="47.2" fill="#000000" transform="matrix(1.00, 0.00, -0.00, -1.00, 751.5, 136.9)"> </text><text xml:space="preserve" font-family="Helvetica-Light,Helvetica" font-size="47.2" fill="#000000" transform="matrix(1.00, 0.00, -0.00, -1.00, 764.6, 136.9)">L</text><text xml:space="preserve" font-family="Helvetica-Light,Helvetica" font-size="47.2" fill="#000000" transform="matrix(1.00, 0.00, -0.00, -1.00, 790.8, 136.9)">o</text><text xml:space="preserve" font-family="Helvetica-Light,Helvetica" font-size="47.2" fill="#000000" transform="matrix(1.00, 0.00, -0.00, -1.00, 817.1, 136.9)">c</text><text xml:space="preserve" font-family="Helvetica-Light,Helvetica" font-size="47.2" fill="#000000" transform="matrix(1.00, 0.00, -0.00, -1.00, 843.3, 136.9)">k</text><text xml:space="preserve" font-family="Helvetica-Light,Helvetica" font-size="47.2" fill="#000000" transform="matrix(1.00, 0.00, -0.00, -1.00, 866.9, 136.9)">i</text><text xml:space="preserve" font-family="Helvetica-Light,Helvetica" font-size="47.2" fill="#000000" transform="matrix(1.00, 0.00, -0.00, -1.00, 877.4, 136.9)">t</text><text xml:space="preserve" font-family="Helvetica-Light,Helvetica" font-size="47.2" fill="#000000" transform="matrix(1.00, 0.00, -0.00, -1.00, 890.5, 136.9)">r</text><text xml:space="preserve" font-family="Helvetica-Light,Helvetica" font-size="47.2" fill="#000000" transform="matrix(1.00, 0.00, -0.00, -1.00, 905.4, 136.9)">o</text><text xml:space="preserve" font-family="Helvetica-Light,Helvetica" font-size="47.2" fill="#000000" transform="matrix(1.00, 0.00, -0.00, -1.00, 931.6, 136.9)">n</text><text xml:space="preserve" font-family="Helvetica-Light,Helvetica" font-size="32.0" fill="#000000" transform="matrix(1.00, 0.00, -0.00, -1.00, 202.8, 83.3)">G</text><text xml:space="preserve" font-family="Helvetica-Light,Helvetica" font-size="32.0" fill="#000000" transform="matrix(1.00, 0.00, -0.00, -1.00, 227.7, 83.3)">e</text><text xml:space="preserve" font-family="Helvetica-Light,Helvetica" font-size="32.0" fill="#000000" transform="matrix(1.00, 0.00, -0.00, -1.00, 245.5, 83.3)">o</text><text xml:space="preserve" font-family="Helvetica-Light,Helvetica" font-size="32.0" fill="#000000" transform="matrix(1.00, 0.00, -0.00, -1.00, 263.3, 83.3)">f</text><text xml:space="preserve" font-family="Helvetica-Light,Helvetica" font-size="32.0" fill="#000000" transform="matrix(1.00, 0.00, -0.00, -1.00, 271.6, 83.3)">f</text><text xml:space="preserve" font-family="Helvetica-Light,Helvetica" font-size="32.0" fill="#000000" transform="matrix(1.00, 0.00, -0.00, -1.00, 280.5, 83.3)"> </text><text xml:space="preserve" font-family="Helvetica-Light,Helvetica" font-size="32.0" fill="#000000" transform="matrix(1.00, 0.00, -0.00, -1.00, 289.4, 83.3)">S</text><text xml:space="preserve" font-family="Helvetica-Light,Helvetica" font-size="32.0" fill="#000000" transform="matrix(1.00, 0.00, -0.00, -1.00, 309.0, 83.3)">v</text><text xml:space="preserve" font-family="Helvetica-Light,Helvetica" font-size="32.0" fill="#000000" transform="matrix(1.00, 0.00, -0.00, -1.00, 325.0, 83.3)">a</text><text xml:space="preserve" font-family="Helvetica-Light,Helvetica" font-size="32.0" fill="#000000" transform="matrix(1.00, 0.00, -0.00, -1.00, 342.8, 83.3)">c</text><text xml:space="preserve" font-family="Helvetica-Light,Helvetica" font-size="32.0" fill="#000000" transform="matrix(1.00, 0.00, -0.00, -1.00, 360.5, 83.3)">h</text><text xml:space="preserve" font-family="Helvetica-Light,Helvetica" font-size="32.0" fill="#000000" transform="matrix(1.00, 0.00, -0.00, -1.00, 378.3, 83.3)">a</text><text xml:space="preserve" font-family="Helvetica-Light,Helvetica" font-size="32.0" fill="#000000" transform="matrix(1.00, 0.00, -0.00, -1.00, 396.1, 83.3)"> </text><text xml:space="preserve" font-family="Helvetica-Light,Helvetica" font-size="32.0" fill="#000000" transform="matrix(1.00, 0.00, -0.00, -1.00, 405.0, 83.3)">-</text><text xml:space="preserve" font-family="Helvetica-Light,Helvetica" font-size="32.0" fill="#000000" transform="matrix(1.00, 0.00, -0.00, -1.00, 415.7, 83.3)"> </text><text xml:space="preserve" font-family="Helvetica-Light,Helvetica" font-size="32.0" fill="#000000" transform="matrix(1.00, 0.00, -0.00, -1.00, 424.6, 83.3)">I</text><text xml:space="preserve" font-family="Helvetica-Light,Helvetica" font-size="32.0" fill="#000000" transform="matrix(1.00, 0.00, -0.00, -1.00, 433.5, 83.3)">n</text><text xml:space="preserve" font-family="Helvetica-Light,Helvetica" font-size="32.0" fill="#000000" transform="matrix(1.00, 0.00, -0.00, -1.00, 451.3, 83.3)">s</text><text xml:space="preserve" font-family="Helvetica-Light,Helvetica" font-size="32.0" fill="#000000" transform="matrix(1.00, 0.00, -0.00, -1.00, 467.3, 83.3)">i</text><text xml:space="preserve" font-family="Helvetica-Light,Helvetica" font-size="32.0" fill="#000000" transform="matrix(1.00, 0.00, -0.00, -1.00, 474.4, 83.3)">g</text><text xml:space="preserve" font-family="Helvetica-Light,Helvetica" font-size="32.0" fill="#000000" transform="matrix(1.00, 0.00, -0.00, -1.00, 493.9, 83.3)">h</text><text xml:space="preserve" font-family="Helvetica-Light,Helvetica" font-size="32.0" fill="#000000" transform="matrix(1.00, 0.00, -0.00, -1.00, 511.7, 83.3)">t</text><text xml:space="preserve" font-family="Helvetica-Light,Helvetica" font-size="32.0" fill="#000000" transform="matrix(1.00, 0.00, -0.00, -1.00, 520.6, 83.3)"> </text><text xml:space="preserve" font-family="Helvetica-Light,Helvetica" font-size="32.0" fill="#000000" transform="matrix(1.00, 0.00, -0.00, -1.00, 529.5, 83.3)">D</text><text xml:space="preserve" font-family="Helvetica-Light,Helvetica" font-size="32.0" fill="#000000" transform="matrix(1.00, 0.00, -0.00, -1.00, 552.6, 83.3)">a</text><text xml:space="preserve" font-family="Helvetica-Light,Helvetica" font-size="32.0" fill="#000000" transform="matrix(1.00, 0.00, -0.00, -1.00, 570.4, 83.3)">t</text><text xml:space="preserve" font-family="Helvetica-Light,Helvetica" font-size="32.0" fill="#000000" transform="matrix(1.00, 0.00, -0.00, -1.00, 579.3, 83.3)">a</text><text xml:space="preserve" font-family="Helvetica-Light,Helvetica" font-size="32.0" fill="#000000" transform="matrix(1.00, 0.00, -0.00, -1.00, 597.1, 83.3)"> </text><text xml:space="preserve" font-family="Helvetica-Light,Helvetica" font-size="32.0" fill="#000000" transform="matrix(1.00, 0.00, -0.00, -1.00, 606.0, 83.3)">S</text><text xml:space="preserve" font-family="Helvetica-Light,Helvetica" font-size="32.0" fill="#000000" transform="matrix(1.00, 0.00, -0.00, -1.00, 625.5, 83.3)">c</text><text xml:space="preserve" font-family="Helvetica-Light,Helvetica" font-size="32.0" fill="#000000" transform="matrix(1.00, 0.00, -0.00, -1.00, 643.3, 83.3)">i</text><text xml:space="preserve" font-family="Helvetica-Light,Helvetica" font-size="32.0" fill="#000000" transform="matrix(1.00, 0.00, -0.00, -1.00, 650.4, 83.3)">e</text><text xml:space="preserve" font-family="Helvetica-Light,Helvetica" font-size="32.0" fill="#000000" transform="matrix(1.00, 0.00, -0.00, -1.00, 668.2, 83.3)">n</text><text xml:space="preserve" font-family="Helvetica-Light,Helvetica" font-size="32.0" fill="#000000" transform="matrix(1.00, 0.00, -0.00, -1.00, 686.0, 83.3)">c</text><text xml:space="preserve" font-family="Helvetica-Light,Helvetica" font-size="32.0" fill="#000000" transform="matrix(1.00, 0.00, -0.00, -1.00, 703.8, 83.3)">e</text><text xml:space="preserve" font-family="Helvetica-Light,Helvetica" font-size="32.0" fill="#000000" transform="matrix(1.00, 0.00, -0.00, -1.00, 721.6, 83.3)"> </text><text xml:space="preserve" font-family="Helvetica-Light,Helvetica" font-size="32.0" fill="#000000" transform="matrix(1.00, 0.00, -0.00, -1.00, 730.5, 83.3)">F</text><text xml:space="preserve" font-family="Helvetica-Light,Helvetica" font-size="32.0" fill="#000000" transform="matrix(1.00, 0.00, -0.00, -1.00, 748.3, 83.3)">e</text><text xml:space="preserve" font-family="Helvetica-Light,Helvetica" font-size="32.0" fill="#000000" transform="matrix(1.00, 0.00, -0.00, -1.00, 766.1, 83.3)">l</text><text xml:space="preserve" font-family="Helvetica-Light,Helvetica" font-size="32.0" fill="#000000" transform="matrix(1.00, 0.00, -0.00, -1.00, 773.2, 83.3)">l</text><text xml:space="preserve" font-family="Helvetica-Light,Helvetica" font-size="32.0" fill="#000000" transform="matrix(1.00, 0.00, -0.00, -1.00, 780.3, 83.3)">o</text><text xml:space="preserve" font-family="Helvetica-Light,Helvetica" font-size="32.0" fill="#000000" transform="matrix(1.00, 0.00, -0.00, -1.00, 798.1, 83.3)">w</text><image xlink:href="../../0099E750-43F4-4A1E-80C1-2076B752852F/assets/59D868F045E8C3FA8D907CE19272431C.png" width="1280.00" height="720.00" transform="matrix(0.80, 0.00, -0.00, -0.80, 0.0, 767.0)"></image></g></svg>