<?xml version="1.0" encoding="UTF-8" standalone="no"?><svg xmlns="http://www.w3.org/2000/svg" xmlns:xlink="http://www.w3.org/1999/xlink" clip-rule="evenodd" stroke-miterlimit="10" viewBox="0 0 1024 768"><desc>SVG generated by Keynote</desc><defs></defs><g transform="matrix(1.00, 0.00, -0.00, -1.00, 0.0, 768.0)"><path d="M 0.0 768.0 L 1024.0 768.0 L 1024.0 0.0 L 0.0 0.0 Z M 0.0 768.0 " fill="#FEFFFF"></path><g><clipPath id="clip0x6080026b6920"><path d="M 495.0 685.0 L 960.0 685.0 L 960.0 528.0 L 495.0 528.0 Z M 495.1 685.0 "></path></clipPath><g clip-path="url(#clip0x6080026b6920)"><image xlink:href="../../44391ABC-9FA2-483A-A977-2964AA34AAAE/assets/081A2F2A0F216617486D5B0520381C39.png" width="4096.00" height="157.00" transform="matrix(1.42, 0.00, -0.00, -1.42, -4171.7, 756.4)"></image></g></g><image xlink:href="../../1BA9EA92-9367-401D-987E-EB927836F250/assets/ED6E1CDE44847A3A9BF6D8799D006FFB.png" width="701.00" height="256.00" transform="matrix(0.77, 0.00, -0.00, -0.77, 482.0, 482.1)"></image><text xml:space="preserve" font-family="Helvetica-Light,Helvetica" font-size="60.0" fill="#000000" transform="matrix(1.00, 0.00, -0.00, -1.00, 37.7, 639.1)">A</text><text xml:space="preserve" font-family="Helvetica-Light,Helvetica" font-size="60.0" fill="#000000" transform="matrix(1.00, 0.00, -0.00, -1.00, 77.7, 639.1)">l</text><text xml:space="preserve" font-family="Helvetica-Light,Helvetica" font-size="60.0" fill="#000000" transform="matrix(1.00, 0.00, -0.00, -1.00, 91.0, 639.1)">g</text><text xml:space="preserve" font-family="Helvetica-Light,Helvetica" font-size="60.0" fill="#000000" transform="matrix(1.00, 0.00, -0.00, -1.00, 127.7, 639.1)">o</text><text xml:space="preserve" font-family="Helvetica-Light,Helvetica" font-size="60.0" fill="#000000" transform="matrix(1.00, 0.00, -0.00, -1.00, 161.0, 639.1)">r</text><text xml:space="preserve" font-family="Helvetica-Light,Helvetica" font-size="60.0" fill="#000000" transform="matrix(1.00, 0.00, -0.00, -1.00, 181.0, 639.1)">i</text><text xml:space="preserve" font-family="Helvetica-Light,Helvetica" font-size="60.0" fill="#000000" transform="matrix(1.00, 0.00, -0.00, -1.00, 194.3, 639.1)">t</text><text xml:space="preserve" font-family="Helvetica-Light,Helvetica" font-size="60.0" fill="#000000" transform="matrix(1.00, 0.00, -0.00, -1.00, 211.0, 639.1)">h</text><text xml:space="preserve" font-family="Helvetica-Light,Helvetica" font-size="60.0" fill="#000000" transform="matrix(1.00, 0.00, -0.00, -1.00, 244.4, 639.1)">m</text><text xml:space="preserve" font-family="Helvetica-Light,Helvetica" font-size="23.5" fill="#000000" transform="matrix(1.00, 0.00, -0.00, -1.00, 37.7, 575.9)">•</text><text xml:space="preserve" font-family="Helvetica-Light,Helvetica" font-size="31.3" fill="#000000" transform="matrix(1.00, 0.00, -0.00, -1.00, 68.1, 573.2)">D</text><text xml:space="preserve" font-family="Helvetica-Light,Helvetica" font-size="31.3" fill="#000000" transform="matrix(1.00, 0.00, -0.00, -1.00, 90.7, 573.2)">e</text><text xml:space="preserve" font-family="Helvetica-Light,Helvetica" font-size="31.3" fill="#000000" transform="matrix(1.00, 0.00, -0.00, -1.00, 108.1, 573.2)">c</text><text xml:space="preserve" font-family="Helvetica-Light,Helvetica" font-size="31.3" fill="#000000" transform="matrix(1.00, 0.00, -0.00, -1.00, 125.6, 573.2)">i</text><text xml:space="preserve" font-family="Helvetica-Light,Helvetica" font-size="31.3" fill="#000000" transform="matrix(1.00, 0.00, -0.00, -1.00, 132.5, 573.2)">s</text><text xml:space="preserve" font-family="Helvetica-Light,Helvetica" font-size="31.3" fill="#000000" transform="matrix(1.00, 0.00, -0.00, -1.00, 148.2, 573.2)">i</text><text xml:space="preserve" font-family="Helvetica-Light,Helvetica" font-size="31.3" fill="#000000" transform="matrix(1.00, 0.00, -0.00, -1.00, 155.1, 573.2)">o</text><text xml:space="preserve" font-family="Helvetica-Light,Helvetica" font-size="31.3" fill="#000000" transform="matrix(1.00, 0.00, -0.00, -1.00, 172.5, 573.2)">n</text><text xml:space="preserve" font-family="Helvetica-Light,Helvetica" font-size="31.3" fill="#000000" transform="matrix(1.00, 0.00, -0.00, -1.00, 190.0, 573.2)"> </text><text xml:space="preserve" font-family="Helvetica-Light,Helvetica" font-size="31.3" fill="#000000" transform="matrix(1.00, 0.00, -0.00, -1.00, 198.7, 573.2)">t</text><text xml:space="preserve" font-family="Helvetica-Light,Helvetica" font-size="31.3" fill="#000000" transform="matrix(1.00, 0.00, -0.00, -1.00, 207.4, 573.2)">r</text><text xml:space="preserve" font-family="Helvetica-Light,Helvetica" font-size="31.3" fill="#000000" transform="matrix(1.00, 0.00, -0.00, -1.00, 217.2, 573.2)">e</text><text xml:space="preserve" font-family="Helvetica-Light,Helvetica" font-size="31.3" fill="#000000" transform="matrix(1.00, 0.00, -0.00, -1.00, 234.6, 573.2)">e</text><text xml:space="preserve" font-family="Helvetica-Light,Helvetica" font-size="31.3" fill="#000000" transform="matrix(1.00, 0.00, -0.00, -1.00, 252.1, 573.2)"> </text><text xml:space="preserve" font-family="Helvetica-Light,Helvetica" font-size="31.3" fill="#000000" transform="matrix(1.00, 0.00, -0.00, -1.00, 260.8, 573.2)">r</text><text xml:space="preserve" font-family="Helvetica-Light,Helvetica" font-size="31.3" fill="#000000" transform="matrix(1.00, 0.00, -0.00, -1.00, 270.6, 573.2)">e</text><text xml:space="preserve" font-family="Helvetica-Light,Helvetica" font-size="31.3" fill="#000000" transform="matrix(1.00, 0.00, -0.00, -1.00, 288.0, 573.2)">g</text><text xml:space="preserve" font-family="Helvetica-Light,Helvetica" font-size="31.3" fill="#000000" transform="matrix(1.00, 0.00, -0.00, -1.00, 307.2, 573.2)">r</text><text xml:space="preserve" font-family="Helvetica-Light,Helvetica" font-size="31.3" fill="#000000" transform="matrix(1.00, 0.00, -0.00, -1.00, 317.0, 573.2)">e</text><text xml:space="preserve" font-family="Helvetica-Light,Helvetica" font-size="31.3" fill="#000000" transform="matrix(1.00, 0.00, -0.00, -1.00, 334.5, 573.2)">s</text><text xml:space="preserve" font-family="Helvetica-Light,Helvetica" font-size="31.3" fill="#000000" transform="matrix(1.00, 0.00, -0.00, -1.00, 350.1, 573.2)">s</text><text xml:space="preserve" font-family="Helvetica-Light,Helvetica" font-size="31.3" fill="#000000" transform="matrix(1.00, 0.00, -0.00, -1.00, 365.8, 573.2)">i</text><text xml:space="preserve" font-family="Helvetica-Light,Helvetica" font-size="31.3" fill="#000000" transform="matrix(1.00, 0.00, -0.00, -1.00, 372.7, 573.2)">o</text><text xml:space="preserve" font-family="Helvetica-Light,Helvetica" font-size="31.3" fill="#000000" transform="matrix(1.00, 0.00, -0.00, -1.00, 390.1, 573.2)">n</text><text xml:space="preserve" font-family="Helvetica-Light,Helvetica" font-size="31.3" fill="#000000" transform="matrix(1.00, 0.00, -0.00, -1.00, 407.6, 573.2)"> </text><text xml:space="preserve" font-family="Helvetica-Light,Helvetica" font-size="31.3" fill="#000000" transform="matrix(1.00, 0.00, -0.00, -1.00, 68.1, 536.2)">m</text><text xml:space="preserve" font-family="Helvetica-Light,Helvetica" font-size="31.3" fill="#000000" transform="matrix(1.00, 0.00, -0.00, -1.00, 94.2, 536.2)">o</text><text xml:space="preserve" font-family="Helvetica-Light,Helvetica" font-size="31.3" fill="#000000" transform="matrix(1.00, 0.00, -0.00, -1.00, 111.6, 536.2)">d</text><text xml:space="preserve" font-family="Helvetica-Light,Helvetica" font-size="31.3" fill="#000000" transform="matrix(1.00, 0.00, -0.00, -1.00, 130.8, 536.2)">e</text><text xml:space="preserve" font-family="Helvetica-Light,Helvetica" font-size="31.3" fill="#000000" transform="matrix(1.00, 0.00, -0.00, -1.00, 148.2, 536.2)">l</text><text xml:space="preserve" font-family="Helvetica-Light,Helvetica" font-size="31.3" fill="#000000" transform="matrix(1.00, 0.00, -0.00, -1.00, 155.1, 536.2)"> </text><text xml:space="preserve" font-family="Helvetica-Light,Helvetica" font-size="31.3" fill="#000000" transform="matrix(1.00, 0.00, -0.00, -1.00, 163.8, 536.2)">o</text><text xml:space="preserve" font-family="Helvetica-Light,Helvetica" font-size="31.3" fill="#000000" transform="matrix(1.00, 0.00, -0.00, -1.00, 181.2, 536.2)">f</text><text xml:space="preserve" font-family="Helvetica-Light,Helvetica" font-size="31.3" fill="#000000" transform="matrix(1.00, 0.00, -0.00, -1.00, 190.0, 536.2)"> </text><text xml:space="preserve" font-family="Helvetica-Light,Helvetica" font-size="31.3" fill="#000000" transform="matrix(1.00, 0.00, -0.00, -1.00, 198.7, 536.2)">l</text><text xml:space="preserve" font-family="Helvetica-Light,Helvetica" font-size="31.3" fill="#000000" transform="matrix(1.00, 0.00, -0.00, -1.00, 205.6, 536.2)">o</text><text xml:space="preserve" font-family="Helvetica-Light,Helvetica" font-size="31.3" fill="#000000" transform="matrix(1.00, 0.00, -0.00, -1.00, 223.0, 536.2)">c</text><text xml:space="preserve" font-family="Helvetica-Light,Helvetica" font-size="31.3" fill="#000000" transform="matrix(1.00, 0.00, -0.00, -1.00, 240.4, 536.2)">k</text><text xml:space="preserve" font-family="Helvetica-Light,Helvetica" font-size="31.3" fill="#000000" transform="matrix(1.00, 0.00, -0.00, -1.00, 256.1, 536.2)"> </text><text xml:space="preserve" font-family="Helvetica-Light,Helvetica" font-size="31.3" fill="#000000" transform="matrix(1.00, 0.00, -0.00, -1.00, 264.8, 536.2)">a</text><text xml:space="preserve" font-family="Helvetica-Light,Helvetica" font-size="31.3" fill="#000000" transform="matrix(1.00, 0.00, -0.00, -1.00, 282.2, 536.2)">c</text><text xml:space="preserve" font-family="Helvetica-Light,Helvetica" font-size="31.3" fill="#000000" transform="matrix(1.00, 0.00, -0.00, -1.00, 299.6, 536.2)">t</text><text xml:space="preserve" font-family="Helvetica-Light,Helvetica" font-size="31.3" fill="#000000" transform="matrix(1.00, 0.00, -0.00, -1.00, 308.3, 536.2)">i</text><text xml:space="preserve" font-family="Helvetica-Light,Helvetica" font-size="31.3" fill="#000000" transform="matrix(1.00, 0.00, -0.00, -1.00, 315.3, 536.2)">v</text><text xml:space="preserve" font-family="Helvetica-Light,Helvetica" font-size="31.3" fill="#000000" transform="matrix(1.00, 0.00, -0.00, -1.00, 331.0, 536.2)">i</text><text xml:space="preserve" font-family="Helvetica-Light,Helvetica" font-size="31.3" fill="#000000" transform="matrix(1.00, 0.00, -0.00, -1.00, 337.9, 536.2)">t</text><text xml:space="preserve" font-family="Helvetica-Light,Helvetica" font-size="31.3" fill="#000000" transform="matrix(1.00, 0.00, -0.00, -1.00, 346.6, 536.2)">y</text><text xml:space="preserve" font-family="Helvetica-Light,Helvetica" font-size="31.3" fill="#000000" transform="matrix(1.00, 0.00, -0.00, -1.00, 362.3, 536.2)"> </text><text xml:space="preserve" font-family="Helvetica-Light,Helvetica" font-size="31.3" fill="#000000" transform="matrix(1.00, 0.00, -0.00, -1.00, 371.0, 536.2)">u</text><text xml:space="preserve" font-family="Helvetica-Light,Helvetica" font-size="31.3" fill="#000000" transform="matrix(1.00, 0.00, -0.00, -1.00, 388.4, 536.2)">s</text><text xml:space="preserve" font-family="Helvetica-Light,Helvetica" font-size="31.3" fill="#000000" transform="matrix(1.00, 0.00, -0.00, -1.00, 404.1, 536.2)">i</text><text xml:space="preserve" font-family="Helvetica-Light,Helvetica" font-size="31.3" fill="#000000" transform="matrix(1.00, 0.00, -0.00, -1.00, 411.0, 536.2)">n</text><text xml:space="preserve" font-family="Helvetica-Light,Helvetica" font-size="31.3" fill="#000000" transform="matrix(1.00, 0.00, -0.00, -1.00, 428.4, 536.2)">g</text><text xml:space="preserve" font-family="Helvetica-Light,Helvetica" font-size="31.3" fill="#000000" transform="matrix(1.00, 0.00, -0.00, -1.00, 447.6, 536.2)"> </text><text xml:space="preserve" font-family="Helvetica-Light,Helvetica" font-size="31.3" fill="#000000" transform="matrix(1.00, 0.00, -0.00, -1.00, 68.1, 499.2)">p</text><text xml:space="preserve" font-family="Helvetica-Light,Helvetica" font-size="31.3" fill="#000000" transform="matrix(1.00, 0.00, -0.00, -1.00, 87.3, 499.2)">y</text><text xml:space="preserve" font-family="Helvetica-Light,Helvetica" font-size="31.3" fill="#000000" transform="matrix(1.00, 0.00, -0.00, -1.00, 102.9, 499.2)">t</text><text xml:space="preserve" font-family="Helvetica-Light,Helvetica" font-size="31.3" fill="#000000" transform="matrix(1.00, 0.00, -0.00, -1.00, 111.6, 499.2)">h</text><text xml:space="preserve" font-family="Helvetica-Light,Helvetica" font-size="31.3" fill="#000000" transform="matrix(1.00, 0.00, -0.00, -1.00, 129.0, 499.2)">o</text><text xml:space="preserve" font-family="Helvetica-Light,Helvetica" font-size="31.3" fill="#000000" transform="matrix(1.00, 0.00, -0.00, -1.00, 146.4, 499.2)">n</text><text xml:space="preserve" font-family="Helvetica-Light,Helvetica" font-size="31.3" fill="#000000" transform="matrix(1.00, 0.00, -0.00, -1.00, 163.9, 499.2)"> </text><text xml:space="preserve" font-family="Helvetica-Light,Helvetica" font-size="31.3" fill="#000000" transform="matrix(1.00, 0.00, -0.00, -1.00, 172.6, 499.2)">a</text><text xml:space="preserve" font-family="Helvetica-Light,Helvetica" font-size="31.3" fill="#000000" transform="matrix(1.00, 0.00, -0.00, -1.00, 190.0, 499.2)">n</text><text xml:space="preserve" font-family="Helvetica-Light,Helvetica" font-size="31.3" fill="#000000" transform="matrix(1.00, 0.00, -0.00, -1.00, 207.4, 499.2)">d</text><text xml:space="preserve" font-family="Helvetica-Light,Helvetica" font-size="31.3" fill="#000000" transform="matrix(1.00, 0.00, -0.00, -1.00, 226.5, 499.2)"> </text><text xml:space="preserve" font-family="Helvetica-Light,Helvetica" font-size="31.3" fill="#000000" transform="matrix(1.00, 0.00, -0.00, -1.00, 235.2, 499.2)">s</text><text xml:space="preserve" font-family="Helvetica-Light,Helvetica" font-size="31.3" fill="#000000" transform="matrix(1.00, 0.00, -0.00, -1.00, 250.9, 499.2)">c</text><text xml:space="preserve" font-family="Helvetica-Light,Helvetica" font-size="31.3" fill="#000000" transform="matrix(1.00, 0.00, -0.00, -1.00, 268.3, 499.2)">i</text><text xml:space="preserve" font-family="Helvetica-Light,Helvetica" font-size="31.3" fill="#000000" transform="matrix(1.00, 0.00, -0.00, -1.00, 275.3, 499.2)">k</text><text xml:space="preserve" font-family="Helvetica-Light,Helvetica" font-size="31.3" fill="#000000" transform="matrix(1.00, 0.00, -0.00, -1.00, 290.9, 499.2)">i</text><text xml:space="preserve" font-family="Helvetica-Light,Helvetica" font-size="31.3" fill="#000000" transform="matrix(1.00, 0.00, -0.00, -1.00, 297.9, 499.2)">t</text><text xml:space="preserve" font-family="Helvetica-Light,Helvetica" font-size="31.3" fill="#000000" transform="matrix(1.00, 0.00, -0.00, -1.00, 306.6, 499.2)">-</text><text xml:space="preserve" font-family="Helvetica-Light,Helvetica" font-size="31.3" fill="#000000" transform="matrix(1.00, 0.00, -0.00, -1.00, 317.0, 499.2)">l</text><text xml:space="preserve" font-family="Helvetica-Light,Helvetica" font-size="31.3" fill="#000000" transform="matrix(1.00, 0.00, -0.00, -1.00, 324.0, 499.2)">e</text><text xml:space="preserve" font-family="Helvetica-Light,Helvetica" font-size="31.3" fill="#000000" transform="matrix(1.00, 0.00, -0.00, -1.00, 341.4, 499.2)">a</text><text xml:space="preserve" font-family="Helvetica-Light,Helvetica" font-size="31.3" fill="#000000" transform="matrix(1.00, 0.00, -0.00, -1.00, 358.8, 499.2)">r</text><text xml:space="preserve" font-family="Helvetica-Light,Helvetica" font-size="31.3" fill="#000000" transform="matrix(1.00, 0.00, -0.00, -1.00, 369.8, 499.2)">n</text></g></svg>