<?xml version="1.0" encoding="UTF-8" standalone="no"?><svg xmlns="http://www.w3.org/2000/svg" xmlns:xlink="http://www.w3.org/1999/xlink" clip-rule="evenodd" stroke-miterlimit="10" viewBox="0 0 1024 768"><desc>SVG generated by Keynote</desc><defs></defs><g transform="matrix(1.00, 0.00, -0.00, -1.00, 0.0, 768.0)"><path d="M 0.0 768.0 L 1024.0 768.0 L 1024.0 0.0 L 0.0 0.0 Z M 0.0 768.0 " fill="#FEFFFF"></path><g><clipPath id="clip0x6080034a3a80"><path d="M 256.6 172.5 L 775.2 172.5 L 775.2 607.6 L 256.6 607.6 Z M 256.6 172.5 "></path></clipPath><g clip-path="url(#clip0x6080034a3a80)"><image xlink:href="5B3D059A1A87781E8DA608B80F85A158.png" width="517.00" height="433.00" transform="matrix(1.00, 0.00, -0.00, -1.00, 257.6, 606.6)" opacity="0.50"></image><path d="M 270.0 595.0 L 754.0 595.0 L 754.0 193.0 L 270.0 193.0 Z M 269.7 594.5 " fill="#FEFFFE"></path></g></g><g><clipPath id="clip0x6080034a3d20"><path d="M 287.8 469.1 L 749.6 469.1 L 749.6 587.7 L 287.8 587.7 Z M 287.8 469.1 "></path></clipPath><g clip-path="url(#clip0x6080034a3d20)"><image xlink:href="6E14A589C1760A794A7CE3B7D0AA9B0E.png" width="623.00" height="160.00" transform="matrix(0.74, 0.00, -0.00, -0.74, 287.8, 587.7)"></image></g></g><g><clipPath id="clip0x6000032bc740"><path d="M 274.4 200.3 L 671.1 200.3 L 671.1 491.2 L 274.4 491.2 Z M 274.4 200.3 "></path></clipPath><g clip-path="url(#clip0x6000032bc740)"><image xlink:href="F9C38BEA0BD6DBFE31F9AFCCFDE60AF1.png" width="420.00" height="308.00" transform="matrix(0.94, 0.00, -0.00, -0.94, 274.4, 491.2)"></image></g></g></g></svg>